<?xml version="1.0" encoding="UTF-8"?>
<svg id="_Слой_1" data-name="Слой 1" xmlns="http://www.w3.org/2000/svg" viewBox="0 0 1020.17 1020">
  <defs>
    <style>
      .cls-1 {
        fill: #bdb9dc;
      }
    </style>
  </defs>
  <path class="cls-1" d="M1016.29,573.23c2.64-20.64,3.88-41.77,3.88-63.15,0-8.83-.25-17.58-.74-26.25-.41-8.75-1.07-17.33-1.98-25.92-.82-8.59-1.9-17.09-3.22-25.51-1.24-8.42-2.72-16.76-4.54-25.01-.74-3.63-1.49-7.18-2.31-10.73-1.07-4.71-2.15-9.33-3.38-13.95-.66-2.64-1.32-5.2-2.15-7.76-.99-3.8-2.06-7.59-3.22-11.31-1.07-3.63-2.23-7.18-3.38-10.81-1.73-5.45-3.63-10.73-5.53-16.1-1.98-5.37-3.96-10.65-6.11-15.85-.41-1.24-.99-2.56-1.49-3.8-1.73-4.21-3.55-8.42-5.37-12.55-1.16-2.64-2.31-5.2-3.47-7.84-.83-1.9-1.73-3.71-2.56-5.53-1.49-3.14-3.05-6.19-4.62-9.25-1.9-3.8-3.88-7.51-5.78-11.14-1.16-2.39-2.48-4.71-3.8-7.02-1.32-2.48-2.72-4.95-4.13-7.43-1.98-3.47-4.04-6.85-6.19-10.32-1.16-1.98-2.31-3.88-3.55-5.78-1.98-3.3-4.04-6.52-6.19-9.66-2.48-3.8-5.04-7.68-7.68-11.39-2.06-2.89-4.13-5.7-6.19-8.59-2.81-3.8-5.61-7.6-8.5-11.39-2.89-3.71-5.78-7.43-8.83-11.14-1.24-1.49-2.56-3.06-3.8-4.62-1.32-1.49-2.64-3.05-3.96-4.54-.83-1.07-1.82-2.06-2.72-3.14-1.98-2.31-4.04-4.62-6.11-6.85-1.98-2.31-4.13-4.54-6.19-6.77-.5-.49-.91-.99-1.4-1.49-1.82-1.98-3.8-4.13-5.86-6.11-2.39-2.56-4.7-4.95-7.26-7.35,0-.08-.17-.25-.25-.33-4.54-4.46-9.25-8.92-13.95-13.13-4.79-4.38-9.66-8.67-14.69-12.88-1.16-.99-2.31-1.98-3.47-2.97-1.73-1.49-3.55-3.06-5.45-4.54-3.38-2.89-6.85-5.61-10.32-8.17-8.17-6.36-16.43-12.3-24.93-18-3.38-2.31-6.77-4.54-10.24-6.69-3.38-2.15-6.69-4.21-10.15-6.36-1.82-1.16-3.71-2.31-5.61-3.39-1.73-1.07-3.55-2.06-5.28-3.05-2.72-1.57-5.37-3.14-8.09-4.62-2.64-1.49-5.37-2.97-8.09-4.38-5.28-2.72-10.65-5.45-16.1-8.09-.17-.08-.33-.17-.5-.25-.91-.41-1.82-.83-2.72-1.24-.33-.17-.74-.33-1.07-.58-1.4-.66-2.89-1.32-4.38-1.98-.83-.41-1.57-.82-2.39-1.15-.82-.41-1.65-.74-2.48-1.07-4.21-1.98-8.5-3.8-12.79-5.61-1.9-.83-3.8-1.57-5.78-2.31-1.65-.66-3.3-1.32-5.04-1.98-6.03-2.39-12.05-4.62-18.08-6.69-2.56-.82-5.12-1.65-7.68-2.47-.74-.25-1.57-.5-2.31-.74-3.22-.99-6.36-2.15-9.58-3.05-.33-.74-.83-1.24-1.57-1.4-.66-.25-1.32-.08-2.06,.33h-.08c-1.57-.5-3.22-.99-4.95-1.4-2.56-.74-5.2-1.49-7.76-2.15-2.81-.74-5.7-1.49-8.59-2.15-4.37-1.16-8.75-2.15-13.12-3.06-2.81-.58-5.53-1.24-8.34-1.73-6.36-1.32-12.71-2.48-19.15-3.47-2.15-.33-4.29-.66-6.44-.99-8.34-1.24-16.76-2.31-25.26-3.05-3.88-.41-7.68-.74-11.56-.99-12.38-.91-24.93-1.4-37.56-1.4-11.64,0-23.28,.41-34.75,1.24-3.88,.25-7.68,.58-11.47,.91-2.06,.08-4.13,.33-6.27,.58-2.15,.25-4.21,.41-6.27,.74-3.55,.41-7.18,.83-10.73,1.32-.17-.08-.33,0-.5,0-6.77,.99-13.46,2.06-20.14,3.22-.83,.17-1.73,.25-2.56,.5-7.51,1.32-14.94,2.89-22.29,4.62-4.13,.91-8.26,1.9-12.3,2.97-4.04,1.07-8.09,2.15-12.13,3.3-1.57,.41-3.14,.91-4.62,1.32-.74-.58-1.65-.83-2.48-.58-.83,.25-1.49,.91-1.73,1.82-9.08,2.81-18.08,5.78-26.91,9.08-2.23,.82-4.46,1.65-6.69,2.56-3.3,1.16-6.6,2.48-9.91,3.88-.08,0-.17,.08-.17,.08-3.22,1.24-6.44,2.56-9.66,4.04-2.72,1.15-5.45,2.31-8.09,3.55-11.64,5.28-23.11,10.98-34.26,17.09-2.39,1.32-4.79,2.64-7.1,3.96-1.73,.99-3.47,1.98-5.2,2.97-2.64,1.57-5.37,3.14-8.01,4.79-14.03,8.42-27.57,17.67-40.7,27.49-3.3,2.47-6.52,4.95-9.74,7.51-4.05,3.14-8.01,6.36-11.89,9.66-6.85,5.7-13.54,11.64-20.06,17.67h-.08c-4.87,4.54-9.66,9.24-14.45,13.95-9.49,9.41-18.49,19.32-27.16,29.47-4.29,5.12-8.5,10.32-12.71,15.6-2.56,3.22-5.04,6.44-7.51,9.74l-.08,.08c-4.87,6.52-9.58,13.21-14.12,19.89-4.71,6.77-9.16,13.7-13.29,20.72-2.15,3.47-4.21,7.02-6.27,10.57-6.27,10.65-12.05,21.63-17.34,32.77-1.73,3.71-3.55,7.43-5.2,11.23-1.73,3.8-3.38,7.51-5.04,11.39-4.95,11.39-9.33,23.03-13.29,34.92-.41,1.07-.82,2.15-1.15,3.22-.74,2.23-1.49,4.46-2.15,6.77-.17,.66-.33,1.24-.58,1.9-4.13,13.46-7.76,27.08-10.9,40.86-1.49,6.94-2.89,13.95-4.21,20.97-1.24,7.02-2.31,14.12-3.3,21.22-1.24,9.49-2.31,19.07-3.05,28.73v.5c-.49,6.52-.83,12.96-1.16,19.48-.33,6.52-.41,13.13-.41,19.65,0,17.67,.83,35.08,2.72,52.17,.33,3.55,.74,7.1,1.16,10.57,.17,2.31,.49,4.54,.83,6.77,.33,2.56,.74,5.12,1.16,7.68,.08,.33,.17,.66,.17,.99,.66,4.04,1.32,8.09,2.06,12.13,.74,4.13,1.49,8.34,2.39,12.47,.83,4.13,1.73,8.26,2.72,12.38,1.9,8.17,3.96,16.34,6.27,24.43,.99,3.55,2.06,7.02,3.14,10.57,.16,.66,.41,1.32,.58,2.06,.91,2.72,1.82,5.45,2.64,8.17,.58,1.57,1.07,3.14,1.65,4.71,1.16,3.38,2.39,6.77,3.63,10.15,1.16,3.3,2.39,6.6,3.72,9.91,4.79,12.3,10.07,24.43,15.85,36.24,2.06,4.29,4.21,8.51,6.36,12.71,2.23,4.21,4.46,8.42,6.77,12.55,4.54,8.26,9.33,16.43,14.45,24.43,2.56,4.05,5.12,8.01,7.76,11.89,2.72,4.13,5.53,8.17,8.34,12.13,.41,.66,.91,1.32,1.4,1.98,2.97,4.04,5.94,8.01,8.92,11.97,2.23,3.06,4.62,6.11,7.1,9.08,2.39,2.89,4.71,5.86,7.1,8.67,3.05,3.72,6.11,7.35,9.33,10.9,.74,.91,1.57,1.82,2.56,2.81,3.38,3.88,6.93,7.68,10.57,11.39,1.24,1.32,2.48,2.64,3.71,3.96,9.25,9.49,18.9,18.66,28.89,27.41,2.72,2.39,5.45,4.71,8.26,7.02,4.29,3.63,8.67,7.18,13.04,10.73,3.38,2.72,6.85,5.28,10.32,7.84,2.23,1.73,4.46,3.38,6.77,5.03,3.3,2.39,6.69,4.79,10.07,7.1,4.29,2.89,8.67,5.78,13.04,8.59,11.72,7.59,23.78,14.61,36.16,21.13,3.38,1.9,6.85,3.63,10.32,5.37,7.51,3.8,15.11,7.35,22.78,10.73,2.31,1.07,4.7,2.15,7.1,3.14,2.56,1.07,5.12,2.15,7.76,3.14,4.29,1.82,8.75,3.55,13.13,5.12,1.82,.66,3.55,1.32,5.37,1.98,4.38,1.57,8.75,3.06,13.13,4.54,1.57,.5,3.14,1.07,4.79,1.57,4.79,1.49,9.66,2.97,14.53,4.29,1.49,.5,2.97,.91,4.46,1.24,2.31,.74,4.62,1.4,7.02,1.98,.25,.08,.58,.17,.83,.17,3.14,.83,6.36,1.65,9.58,2.39,2.97,.66,6.03,1.4,9.08,1.98,.41,.17,.83,.25,1.24,.33,1.16,.25,2.39,.5,3.55,.83,1.49,.33,2.97,.58,4.54,.91,2.81,.5,5.61,.99,8.42,1.49,1.07,.25,2.06,.42,3.14,.58,3.3,.58,6.69,1.16,10.07,1.65,1.49,.25,2.89,.5,4.38,.66,4.95,.74,9.99,1.4,14.94,1.9,2.06,.25,4.04,.41,6.19,.66,3.88,.41,7.76,.83,11.72,1.16,10.4,.82,20.97,1.32,31.53,1.49,1.4,.08,2.89,.08,4.29,.08h6.6c3.72,0,7.43-.08,11.15-.17,2.89-.08,5.7-.17,8.59-.33,5.61-.25,11.23-.58,16.76-.99,1.98-.17,3.96-.33,5.94-.5,1.98-.25,3.96-.41,6.03-.58h.25c2.15-.25,4.21-.41,6.36-.66,1.07-.08,2.15-.17,3.22-.41,.66-.08,1.24-.17,1.82-.25,2.64-.25,5.2-.58,7.68-.99,5.2-.66,10.24-1.4,15.35-2.23,6.36-1.07,12.71-2.23,18.99-3.63,3.71-.74,7.43-1.57,11.14-2.48,3.55-.83,7.02-1.65,10.48-2.56,1.82-.41,3.55-.82,5.37-1.32,.66-.17,1.32-.33,2.06-.58,1.73-.5,3.47-.99,5.12-1.49,3.14-.83,6.11-1.73,9.16-2.64,3.05-.91,6.11-1.82,9.08-2.81,3.06-.99,6.03-1.98,9-3.06,1.9-.58,3.71-1.24,5.53-1.9,1.82-.66,3.63-1.32,5.45-2.06,3.55-1.24,7.1-2.56,10.57-3.96,1.65-.66,3.3-1.4,4.95-2.06,3.47-1.4,6.94-2.89,10.32-4.38,2.31-.99,4.54-1.98,6.85-2.97,4.62-2.06,9.24-4.21,13.87-6.44,3.88-1.9,7.76-3.88,11.64-5.86,3.14-1.65,6.27-3.3,9.33-5.04,3.55-1.9,7.1-3.88,10.57-5.94,4.21-2.31,8.42-4.87,12.55-7.51,2.81-1.82,5.7-3.55,8.5-5.37,3.47-2.23,6.85-4.46,10.24-6.77,1.32-.91,2.64-1.73,3.88-2.64,1.57-1.07,3.22-2.23,4.79-3.38,.25-.17,.58-.41,.83-.58,.08,0,.17-.08,.25-.17,.91-.66,1.65-1.32,2.56-1.81,3.38-2.39,6.69-4.87,10.07-7.51,3.38-2.48,6.77-5.12,10.07-7.84,1.07-.91,2.15-1.82,3.3-2.72,2.97-2.39,5.94-4.87,8.83-7.35,1.57-1.32,3.05-2.64,4.62-4.04,2.15-1.9,4.29-3.71,6.44-5.7q.08-.08,.16-.17c2.23-1.98,4.29-4.04,6.44-6.03,1.57-1.49,3.22-2.97,4.79-4.46,1.49-1.4,3.06-2.81,4.46-4.37,1.49-1.4,3.05-2.81,4.38-4.38l.99-.99c2.06-2.06,4.04-4.13,6.03-6.27,1.24-1.24,2.48-2.56,3.63-3.88,3.88-3.96,7.59-8.09,11.14-12.22,.99-1.07,1.98-2.23,2.97-3.3,.5-.58,.99-1.16,1.49-1.82,1.65-1.9,3.22-3.8,4.87-5.78,.66-.82,1.32-1.57,1.98-2.39,3.38-4.04,6.69-8.26,9.91-12.46,1.65-2.15,3.22-4.21,4.79-6.36,.49-.66,.99-1.32,1.49-1.98,.66-.66,1.07-1.32,1.49-1.98,.5-.74,.99-1.4,1.49-2.15,2.97-4.13,5.86-8.26,8.75-12.47,8.5-12.55,16.43-25.51,23.69-38.8,2.06-3.47,3.88-6.93,5.7-10.4,2.15-4.13,4.21-8.26,6.27-12.47,.25-.58,.5-1.15,.83-1.65,.66-1.4,1.24-2.81,1.9-4.13,1.4-2.89,2.72-5.78,4.04-8.67,.33-.74,.66-1.49,.99-2.31,1.98-4.29,3.88-8.67,5.7-13.21,.58-1.4,1.16-2.89,1.82-4.29,.66-1.49,1.24-2.97,1.73-4.38,1.57-4.13,3.05-8.26,4.54-12.38,.5-1.32,.91-2.72,1.4-4.04,1.07-3.14,2.23-6.19,3.22-9.24,1.24-4.04,2.56-7.84,3.71-11.8,.99-3.14,1.9-6.36,2.81-9.49,1.82-6.36,3.47-12.8,5.04-19.23,.66-2.56,1.24-5.2,1.82-7.84,.58-2.64,1.15-5.28,1.65-7.84,2.39-11.06,4.29-22.21,5.86-33.52,1.57-.49,2.64-1.49,2.81-2.72,.17-1.32-.66-2.48-2.06-3.22Zm-94.77-63.07c0,46.89-7.84,91.96-22.37,134.06-5.53-14.86-15.02-28.73-27.66-41.03-15.68-15.35-36.4-27.98-60.26-36.49l-1.73-.66c-1.82-.82-2.81-2.39-2.56-3.96,.17-1.9,2.06-3.14,4.29-3.22,48.29-2.48,89.65-22.54,110.21-53.41,.08,1.57,.08,3.14,.08,4.71Zm-135.55,305.85c-2.31,2.14-4.54,4.21-6.93,6.11-.58,.5-1.16,.99-1.73,1.57-3.72,3.22-7.43,6.27-11.31,9.33-2.72,2.23-5.61,4.38-8.42,6.52-12.96,9.74-26.42,18.74-40.45,26.91-24.85,1.57-50.52-7.18-67.61-25.26-28.81-30.38-29.64-83.05-1.9-114.41,15.35-17.5,37.23-27.74,59.11-35.41,57.37-20.14,119.86-25.18,179.8-14.86-23.53,53.33-58.03,100.79-100.55,139.51Zm-277.78,107.48c-22.12,0-43.92-1.74-65.13-5.12,30.13-19.73,53-56.05,62.08-100.05v-.08c.08-.58,.25-1.16,.33-1.82,.66-2.06,2.23-3.38,3.96-3.38,1.98,0,3.63,1.73,4.21,4.04,8.92,44.5,32.03,81.15,62.41,100.79-22.04,3.71-44.74,5.61-67.86,5.61ZM206.21,557.55c2.23,.17,4.21,1.32,4.37,3.3,.25,1.49-.82,3.14-2.64,3.96l-1.65,.58c-23.86,8.59-44.58,21.22-60.35,36.49-12.05,11.8-21.22,24.93-26.83,38.96-13.79-41.11-21.3-85.11-21.3-130.84,0-.99,0-1.98,.08-2.97,21.3,29.22,61.58,48.21,108.31,50.52Zm-104.26-105.58c5.78-41.03,17.67-80.16,34.67-116.4,9.25,31.12,35.75,60.59,72.81,79.58,1.98,1.07,2.97,2.97,2.56,4.54-.41,1.49-1.98,2.39-3.88,2.48-.58-.08-1.16-.08-1.73-.08l-.08,.08c-41.77-3.55-80.08,7.76-104.34,29.8Zm209.84,239.56c21.96,7.68,43.84,17.91,59.19,35.41,27.74,31.29,26.91,83.95-1.9,114.41-16.76,17.67-41.36,26.42-65.63,25.26-75.04-43.67-135.13-110.29-170.47-190.12,59.6-10.15,121.76-5.04,178.8,15.02Zm475.66-329.13c.17,.33,.33,.58,.49,.91,.49,1.07,.49,2.48,0,3.88-.25,.5-.49,1.07-.91,1.65v.08l-.08-.08c-.41,.5-.91,.91-1.4,1.24-1.24,.74-2.56,1.07-3.72,.82-.33-.08-.66-.25-.99-.33-10.15-3.22-20.97-4.87-32.11-4.87-32.86,0-68.85,13.87-99.97,39.54v.08c-.5,.33-.99,.74-1.49,1.15-1.73,1.15-3.8,1.32-5.2,.17-1.49-1.24-1.73-3.63-.66-5.78,24.85-47.88,27.24-99.72,6.52-136.21,0-.17-.08-.33-.25-.5-.33-.58-.41-1.24-.41-1.9,0-.83,.16-1.82,.66-2.72,.25-.5,.58-.99,.91-1.49,.17-.17,.25-.33,.41-.41,.08-.08,.17-.25,.25-.33,.33-.5,.74-.83,1.24-1.24,1.4-1.07,3.14-1.57,4.46-1.16h.08c.08,.08,.25,.08,.41,.08,40.12,12.55,90.23-.82,131.75-35.25,1.9-1.49,4.29-1.82,5.86-.58,1.32,1.07,1.65,3.14,.91,5.12-.33,.58-.58,1.16-.83,1.73h-.08c-24.77,48.05-26.99,99.97-5.86,136.37Zm-44.5,250.21c.25,.33,.41,.58,.58,.91,.41,1.07,.41,2.48-.08,3.8-.17,.58-.5,1.15-.83,1.73h-.08c-.41,.5-.91,.91-1.4,1.15-1.24,.83-2.64,1.16-3.8,.91-.33-.17-.66-.25-.91-.33h-.08c-40.04-12.88-90.31,.33-132,34.67l-1.49,1.24c-1.82,1.15-3.88,1.32-5.2,.16-1.57-1.24-1.73-3.63-.66-5.86,24.77-47.8,27.24-99.64,6.52-136.21-.08-.08-.17-.25-.25-.41-.33-.58-.41-1.24-.41-1.98,0-.91,.17-1.81,.58-2.72,.33-.5,.58-.99,.99-1.4,.08-.16,.25-.33,.33-.41s.17-.25,.25-.33c.41-.5,.83-.91,1.24-1.24,1.4-1.16,3.14-1.57,4.54-1.24,.16,.08,.33,.17,.49,.17,40.12,12.55,90.23-.82,131.67-35.25,1.98-1.57,4.38-1.82,5.86-.58,1.4,1.07,1.65,3.14,.99,5.12-.33,.58-.66,1.16-.91,1.65-13.46,26.17-20.31,53.49-20.31,78.84,0,21.22,4.79,41.03,14.36,57.62Zm-98.65-451.47c-16.59,12.71-31.45,30.46-42.76,51.76-.25,.41-.5,.99-.83,1.49-1.07,1.49-2.64,2.39-4.13,1.98-1.65-.58-2.56-2.39-2.48-4.71,4.46-45.73-8.83-87.26-35-111.03,2.39,.33,4.79,.58,7.1,.91,41.69,5.7,81.4,17.67,118.21,34.92,2.31,1.07,4.62,2.15,6.93,3.3-16.26,2.56-32.44,9.99-47.05,21.38Zm-50.27,231.06c.08,.08,.25,.08,.41,.17,1.32,.58,2.39,1.98,2.81,3.8,.08,.58,.17,1.07,.17,1.73v.91c0,.66-.08,1.15-.17,1.73-.41,1.82-1.49,3.22-2.72,3.8h-.08c-.16,.08-.25,.08-.41,.17-39.05,15.44-69.67,57.29-80.4,110.21-.58,2.31-2.23,4.04-4.21,4.04-1.73,0-3.22-1.4-3.96-3.38-.08-.66-.25-1.24-.33-1.82v-.08c-10.9-52.91-41.77-94.69-80.98-109.88h-.08c-.33-.08-.66-.25-.91-.33-1.07-.58-1.98-1.65-2.39-3.06-.25-.58-.33-1.16-.41-1.82v-.08c0-.66,.16-1.24,.33-1.82,.49-1.4,1.4-2.48,2.39-3.06,.33-.08,.66-.25,.99-.33,39.29-15.19,70.17-56.96,81.06-109.88v-.08c.08-.58,.25-1.16,.33-1.82,.66-2.06,2.23-3.39,3.96-3.39,1.98,0,3.63,1.73,4.21,4.04,10.65,52.91,41.28,94.77,80.4,110.21Zm-324.18,83.95h-.08c-.25-.49-.49-1.07-.83-1.65-.74-1.98-.41-4.04,.91-5.12,1.57-1.24,3.96-.99,5.86,.58,41.52,34.43,91.63,47.8,131.75,35.25,.17,0,.33-.08,.41-.17h.08c1.32-.33,3.05,.08,4.46,1.24,.49,.33,.91,.74,1.24,1.24,.08,.08,.17,.25,.25,.33,.17,.08,.25,.25,.41,.41,.33,.42,.66,.91,.91,1.4,.5,.91,.66,1.9,.66,2.81,0,.66-.08,1.32-.41,1.9-.17,.17-.25,.33-.25,.41-20.72,36.57-18.33,88.41,6.52,136.21,1.07,2.23,.83,4.62-.66,5.86-1.4,1.16-3.47,.99-5.2-.16l-1.49-1.24c-31.12-25.67-67.11-39.54-99.97-39.54-11.14,0-21.96,1.65-32.11,4.87-.33,.08-.66,.17-.99,.33-1.16,.25-2.48-.08-3.71-.91-.5-.25-.99-.66-1.4-1.15h-.08c-.41-.58-.66-1.15-.91-1.73-.5-1.32-.5-2.72,0-3.8,.17-.33,.33-.58,.5-.91,21.13-36.49,18.9-88.41-5.86-136.46ZM424.97,213.15c.16,2.06-.83,4.05-2.39,4.62-1.57,.33-3.14-.5-4.21-1.98-.25-.58-.58-1.07-.83-1.57-11.31-21.3-26.17-38.88-42.6-51.59-15.11-11.64-31.78-19.23-48.54-21.55,2.89-1.49,5.7-2.89,8.67-4.29,36.4-17.17,75.7-29.14,116.97-34.92,3.22-.49,6.36-.91,9.58-1.24-27.24,23.36-41.11,65.79-36.65,112.52Zm-199.53,6.03c1.49-1.24,3.88-.91,5.86,.58,41.44,34.42,91.63,47.8,131.67,35.25,.17,0,.33,0,.49-.08,1.4-.41,3.14,.08,4.54,1.16,.41,.41,.83,.74,1.24,1.24,.08,.08,.16,.25,.25,.33,.08,.08,.25,.25,.33,.41,.41,.49,.66,.99,.99,1.49,.41,.91,.58,1.82,.58,2.64,0,.74-.08,1.4-.41,1.98-.08,.17-.16,.33-.25,.5-20.72,36.49-18.24,88.33,6.52,136.21,1.07,2.14,.91,4.54-.66,5.78-1.32,1.15-3.38,.99-5.2-.17-.5-.41-.99-.83-1.49-1.15v-.08c-41.69-34.34-91.96-47.55-132-34.67h-.08c-.25,.08-.58,.25-.91,.33-1.16,.25-2.56-.08-3.8-.82-.5-.33-.99-.74-1.4-1.24v.08l-.08-.08c-.33-.58-.66-1.15-.83-1.65-.49-1.4-.49-2.81-.08-3.88,.17-.33,.33-.58,.58-.91,9.58-16.59,14.36-36.4,14.36-57.54,0-25.34-6.85-52.67-20.31-78.84-.25-.58-.58-1.15-.91-1.73-.66-1.98-.41-4.04,.99-5.12Zm692.44,236.34c-24.02-23.53-63.56-35.66-106.74-32.11h-.08c-.49,0-1.07,0-1.73,.08-1.9-.17-3.47-1.07-3.88-2.56-.41-1.57,.66-3.38,2.64-4.46,38.3-19.73,65.46-50.52,73.72-82.88,18,37.89,30.38,78.84,36.07,121.93Z"/>
</svg>